<svg width="1920" height="1080" viewBox="0 0 1920 1080" xmlns="http://www.w3.org/2000/svg"><path d="M 0,1080 C 0,1080 0,98 0,98 C 88.6602870813397,116.18181818181817 177.3205741626794,134.36363636363635 327,133 C 476.6794258373206,131.63636363636365 687.3779904306222,110.72727272727273 822,103 C 956.6220095693778,95.27272727272727 1015.1674641148322,100.72727272727272 1137,100 C 1258.8325358851678,99.27272727272728 1443.9521531100481,92.36363636363636 1585,91 C 1726.0478468899519,89.63636363636364 1823.023923444976,93.81818181818181 1920,98 C 1920,98 1920,1080 1920,1080 Z" fill="#c7d36f" opacity="0.05454545454545454"/><path d="M 0,1080 C 0,1080 0,196 0,196 C 124.72727272727272,199.43540669856458 249.45454545454544,202.87081339712918 367,196 C 484.54545454545456,189.12918660287082 594.9090909090909,171.95215311004785 722,183 C 849.0909090909091,194.04784688995215 992.909090909091,233.32057416267943 1126,232 C 1259.090909090909,230.67942583732057 1381.4545454545455,188.76555023923441 1512,176 C 1642.5454545454545,163.23444976076559 1781.2727272727273,179.6172248803828 1920,196 C 1920,196 1920,1080 1920,1080 Z" fill="#c7d36f" opacity="0.10909090909090909"/><path d="M 0,1080 C 0,1080 0,294 0,294 C 111.7129186602871,303.6459330143541 223.4258373205742,313.29186602870817 336,318 C 448.5741626794258,322.70813397129183 562.0095693779904,322.47846889952154 708,317 C 853.9904306220096,311.52153110047846 1032.5358851674641,300.79425837320576 1174,289 C 1315.4641148325359,277.20574162679424 1419.846889952153,264.34449760765546 1538,265 C 1656.153110047847,265.65550239234454 1788.0765550239234,279.82775119617224 1920,294 C 1920,294 1920,1080 1920,1080 Z" fill="#c7d36f" opacity="0.16363636363636364"/><path d="M 0,1080 C 0,1080 0,392 0,392 C 119.8468899521531,397.5406698564593 239.6937799043062,403.08133971291863 376,412 C 512.3062200956938,420.91866028708137 665.0717703349284,433.2153110047847 772,427 C 878.9282296650716,420.7846889952153 940.0191387559807,396.05741626794253 1081,384 C 1221.9808612440193,371.94258373205747 1442.8516746411485,372.555023923445 1596,376 C 1749.1483253588515,379.444976076555 1834.5741626794256,385.7224880382775 1920,392 C 1920,392 1920,1080 1920,1080 Z" fill="#c7d36f" opacity="0.21818181818181817"/><path d="M 0,1080 C 0,1080 0,490 0,490 C 129.1961722488038,492.80382775119614 258.3923444976076,495.6076555023923 396,505 C 533.6076555023924,514.3923444976077 679.6267942583734,530.3732057416267 818,517 C 956.3732057416266,503.62679425837325 1087.1004784688996,460.8995215311005 1197,458 C 1306.8995215311004,455.1004784688995 1395.9712918660287,492.02870813397135 1513,504 C 1630.0287081339713,515.9712918660287 1775.0143540669856,502.9856459330143 1920,490 C 1920,490 1920,1080 1920,1080 Z" fill="#c7d36f" opacity="0.2727272727272727"/><path d="M 0,1080 C 0,1080 0,589 0,589 C 105.38755980861245,576.6650717703349 210.7751196172249,564.3301435406698 353,566 C 495.2248803827751,567.6698564593302 674.2870813397128,583.3444976076556 801,587 C 927.7129186602872,590.6555023923444 1002.0765550239234,582.291866028708 1111,589 C 1219.9234449760766,595.708133971292 1363.4066985645934,617.488038277512 1504,620 C 1644.5933014354066,622.511961722488 1782.2966507177034,605.755980861244 1920,589 C 1920,589 1920,1080 1920,1080 Z" fill="#c7d36f" opacity="0.32727272727272727"/><path d="M 0,1080 C 0,1080 0,687 0,687 C 111.0239234449761,672.1961722488038 222.0478468899522,657.3923444976077 352,665 C 481.9521531100478,672.6076555023923 630.8325358851673,702.6267942583733 778,715 C 925.1674641148327,727.3732057416267 1070.6220095693782,722.1004784688995 1203,717 C 1335.3779904306218,711.8995215311005 1454.6794258373207,706.9712918660288 1572,702 C 1689.3205741626793,697.0287081339712 1804.6602870813397,692.0143540669856 1920,687 C 1920,687 1920,1080 1920,1080 Z" fill="#c7d36f" opacity="0.3818181818181818"/><path d="M 0,1080 C 0,1080 0,785 0,785 C 143.51196172248808,782.6172248803828 287.02392344497616,780.2344497607655 404,784 C 520.9760765550238,787.7655502392345 611.4162679425835,797.6794258373205 734,806 C 856.5837320574165,814.3205741626795 1011.3110047846892,821.0478468899522 1135,810 C 1258.6889952153108,798.9521531100478 1351.3397129186603,770.1291866028708 1477,763 C 1602.6602870813397,755.8708133971292 1761.3301435406697,770.4354066985645 1920,785 C 1920,785 1920,1080 1920,1080 Z" fill="#c7d36f" opacity="0.43636363636363634"/><path d="M 0,1080 C 0,1080 0,883 0,883 C 100.33492822966505,890.1483253588517 200.6698564593301,897.2966507177034 344,900 C 487.3301435406699,902.7033492822966 673.6555023923446,900.9617224880382 821,903 C 968.3444976076554,905.0382775119618 1076.7081339712918,910.8564593301436 1199,903 C 1321.2918660287082,895.1435406698564 1457.5119617224882,873.6124401913875 1580,868 C 1702.4880382775118,862.3875598086125 1811.244019138756,872.6937799043062 1920,883 C 1920,883 1920,1080 1920,1080 Z" fill="#c7d36f" opacity="0.4909090909090909"/><path d="M 0,1080 C 0,1080 0,981 0,981 C 137.3492822966507,994.1483253588517 274.6985645933014,1007.2966507177033 390,1009 C 505.3014354066986,1010.7033492822967 598.5550239234451,1000.9617224880384 715,982 C 831.4449760765549,963.0382775119616 971.0813397129189,934.8564593301435 1108,945 C 1244.9186602870811,955.1435406698565 1379.1196172248804,1003.6124401913876 1514,1016 C 1648.8803827751196,1028.3875598086124 1784.44019138756,1004.6937799043062 1920,981 C 1920,981 1920,1080 1920,1080 Z" fill="#c7d36f" opacity="0.5454545454545454"/></svg>