<?xml version="1.0" encoding="UTF-8" standalone="no"?> <svg xmlns="http://www.w3.org/2000/svg" viewBox="0 0 512 512"><g id="Monstera"><path d="M238.6,384.1784a4.5494,4.5494,0,0,1-.8067-.0728,4.5,4.5,0,0,1-3.6269-5.2295c21.4521-118.5381,7.5586-169.021-7.8736-190.4971-8.8945-12.3774-17.5127-13.7685-17.8754-13.8217a4.4727,4.4727,0,0,1-3.9136-4.99,4.52,4.52,0,0,1,5.0244-3.9409c.4976.0581,12.3057,1.602,23.5308,16.7568,16.7959,22.6763,32.1586,75.4512,9.9638,198.0952A4.5016,4.5016,0,0,1,238.6,384.1784Z"/><path d="M285.3836,372.1285a4.5,4.5,0,0,1-4.49-4.2734c-4.6508-92.2891-3.57-163.2148,3.2115-210.8081,4.5874-32.1895,11.6191-52.84,20.9013-61.3794,4.6123-4.2432,8.3755-4.1133,9.42-3.9751a4.5,4.5,0,0,1-.74,8.958c-1.6323.3965-36.624,12.3687-23.8047,266.7515a4.5,4.5,0,0,1-4.2676,4.7207Q285.4984,372.1286,285.3836,372.1285Zm27.854-271.5146.0034.0005Zm-.0117-.0015.0087.001Z"/><path d="M256.1918,133.5691a25.0426,25.0426,0,0,1,26.8144-28.7529l9.9942.683A13.0163,13.0163,0,0,0,306.8518,91.346l-.8983-9.9771A25.0426,25.0426,0,0,1,334.1218,53.941,60.678,60.678,0,0,1,374.74,76.86l1.8925,2.34a119.9882,119.9882,0,0,0-23.65,22.14c-4.4317,5.3638,1.7349,12.8736,7.8926,9.6341A127.2222,127.2222,0,0,1,392.62,98.973l1.4056,1.7384a104.1037,104.1037,0,0,1,13.8094,31.2351,105.6869,105.6869,0,0,0-23.43,7.2344,5.4576,5.4576,0,0,0,2.2982,10.4584,114.437,114.437,0,0,1,24.1485,2.0513c.166,3.2346.192,6.4762.0359,9.7154l-1.7434,36.14A8.3568,8.3568,0,0,1,401.38,205.48l-36.0939,2.5219c-3.2351.226-6.4765.27-9.7139.1735a114.4394,114.4394,0,0,1-2.5713-24.0986,5.4576,5.4576,0,0,0-10.5055-2.0723,105.6856,105.6856,0,0,0-6.7278,23.58,104.1075,104.1075,0,0,1-31.5254-13.133l-1.7682-1.3678a127.2236,127.2236,0,0,1,11.3144-31.9969c3.106-6.226-4.5349-12.2294-9.8019-7.683a119.99,119.99,0,0,0-21.625,24.1215l-2.3807-1.8416A60.6778,60.6778,0,0,1,256.1918,133.5691Z" style="fill:#398463"/><path d="M358.7307,212.7223q-1.63,0-3.2919-.0493a4.5,4.5,0,0,1-4.2583-3.5191,119.5486,119.5486,0,0,1-2.6792-25.0449.878.878,0,0,0-.7984-.9746.8235.8235,0,0,0-1.043.5752,100.7918,100.7918,0,0,0-6.4458,22.5669,4.5,4.5,0,0,1-5.4692,3.69,108.3479,108.3479,0,0,1-32.8892-13.7q-.19-.1187-.3667-.2553l-1.768-1.3677A4.5,4.5,0,0,1,298.06,190.21a132.4759,132.4759,0,0,1,11.7017-33.1318,1.7542,1.7542,0,0,0-.5205-2.3384,1.6766,1.6766,0,0,0-2.3145.07,114.8725,114.8725,0,0,0-20.8149,23.2021,4.5,4.5,0,0,1-6.5034,1.0728l-2.3809-1.8413a65.3236,65.3236,0,0,1-25.4951-43.0693h0a29.5416,29.5416,0,0,1,31.58-33.8477l9.9941.6831a8.5159,8.5159,0,0,0,9.063-9.26l-.8984-9.9766A29.5416,29.5416,0,0,1,334.6306,49.47,65.3681,65.3681,0,0,1,378.28,74.0817l1.8515,2.289a4.5,4.5,0,0,1-.9316,6.5254,114.8618,114.8618,0,0,0-22.7481,21.3106,1.6749,1.6749,0,0,0-.0209,2.3154,1.7549,1.7549,0,0,0,2.3491.47,132.5054,132.5054,0,0,1,32.8716-12.4136,4.5012,4.5012,0,0,1,4.4682,1.565l1.4058,1.7383c.0937.1157.1816.2368.2636.3613a108.3529,108.3529,0,0,1,14.4053,32.5859,4.5,4.5,0,0,1-3.5708,5.5479,100.7957,100.7957,0,0,0-22.4233,6.93.822.822,0,0,0-.5523,1.0551.8827.8827,0,0,0,.9922.7774,119.2106,119.2106,0,0,1,25.0962,2.1386,4.5,4.5,0,0,1,3.61,4.1817c.18,3.5093.1923,6.9287.0361,10.1626l-1.7432,36.14a12.8621,12.8621,0,0,1-11.9453,12.2061L365.6,212.4909C363.388,212.6447,361.0877,212.7223,358.7307,212.7223Zm-11.26-38.6118a10.1965,10.1965,0,0,1,1.938.187,9.8993,9.8993,0,0,1,8.0928,9.7456,114.3355,114.3355,0,0,0,1.76,19.6777c1.9619-.0107,3.8731-.08,5.7124-.2085l36.0933-2.5219a3.8582,3.8582,0,0,0,3.5835-3.6612l1.7431-36.14c.0889-1.8408.1172-3.7529.0855-5.7149a114.3327,114.3327,0,0,0-19.71-1.3354,9.9574,9.9574,0,0,1-4.1572-19.0845,113.34,113.34,0,0,1,19.5816-6.5439,99.4221,99.4221,0,0,0-11.3819-24.4868A126.5035,126.5035,0,0,0,362.97,114.9572a10.787,10.787,0,0,1-13.5249-2.76,10.5963,10.5963,0,0,1,.0679-13.7232,127.372,127.372,0,0,1,20.646-20.1206,56.2878,56.2878,0,0,0-36.5459-19.9414,20.5445,20.5445,0,0,0-23.1778,22.5533l.8985,9.9765a17.517,17.517,0,0,1-18.64,19.0469l-9.9941-.6831a20.5448,20.5448,0,0,0-22.0488,23.6582h0a56.2615,56.2615,0,0,0,20.7241,36.1094,127.3308,127.3308,0,0,1,19.6714-21.0762,10.5941,10.5941,0,0,1,13.7187-.3638,10.7867,10.7867,0,0,1,3.0508,13.4619,126.4927,126.4927,0,0,0-10.3311,28.07,99.416,99.416,0,0,0,24.7261,10.851,113.3676,113.3676,0,0,1,6.12-19.7177A9.8344,9.8344,0,0,1,347.4705,174.1105Z"/><path d="M371.885,173.3478a4.4846,4.4846,0,0,1-3.1469-1.2837L303.9119,108.62a4.5,4.5,0,1,1,6.2949-6.4326l64.8262,63.4439a4.5,4.5,0,0,1-3.148,7.7163Z"/><path d="M250.3547,190.903a25.0425,25.0425,0,0,0-31.653-23.32l-9.6972,2.5127a13.0162,13.0162,0,0,1-16.222-11.3587l-.9555-9.9719a25.0425,25.0425,0,0,0-32.74-21.7682,60.6775,60.6775,0,0,0-35.6995,30.0106l-1.4289,2.649A119.998,119.998,0,0,1,149.2833,177.06c5.3442,4.4555.6668,12.9728-5.9823,10.9234a127.2215,127.2215,0,0,0-33.4134-5.9468l-1.0612,1.9675a104.1072,104.1072,0,0,0-7.8179,33.2447,105.694,105.694,0,0,1,24.3617,2.7936,5.4577,5.4577,0,0,1-.3319,10.7028,114.44,114.44,0,0,0-23.3571,6.4656c.4328,3.21,1.0045,6.4007,1.7548,9.5557l8.3724,35.2a8.3567,8.3567,0,0,0,9.0933,6.3672l35.94-4.1717c3.2214-.374,6.4154-.9281,9.58-1.6192a114.4459,114.4459,0,0,0-1.913-24.16,5.4576,5.4576,0,0,1,9.9438-3.9725,105.6821,105.6821,0,0,1,10.9573,21.937A104.1064,104.1064,0,0,0,213.976,257.63l1.4858-1.67a127.22,127.22,0,0,0-17.0161-29.3644c-4.2-5.5471,2.2039-12.8556,8.2185-9.3575a119.9931,119.9931,0,0,1,25.6992,19.7241l2.0006-2.2487A60.6775,60.6775,0,0,0,250.3547,190.903Z" style="fill:#337a5b"/><path d="M119.929,292.89a12.8633,12.8633,0,0,1-12.4985-9.8823l-8.3726-35.2c-.7485-3.15-1.3667-6.5127-1.8364-9.9956a4.5,4.5,0,0,1,2.7773-4.7754,119.6392,119.6392,0,0,1,24.2734-6.726.8782.8782,0,0,0,.8316-.9463.822.822,0,0,0-.7373-.9356,101.0985,101.0985,0,0,0-23.3159-2.68,4.5,4.5,0,0,1-4.5323-4.795,108.34,108.34,0,0,1,8.1553-34.6826,4.4039,4.4039,0,0,1,.1919-.4028l1.061-1.9678a4.5443,4.5443,0,0,1,4.104-2.3618,132.5312,132.5312,0,0,1,34.5958,6.144,1.7514,1.7514,0,0,0,2.2221-.8945,1.6751,1.6751,0,0,0-.4468-2.2724,114.8955,114.8955,0,0,0-26.2851-16.754,4.5,4.5,0,0,1-2.1182-6.2421l1.4292-2.649a65.325,65.325,0,0,1,38.3355-32.1748,29.5413,29.5413,0,0,1,38.5434,25.64l.9556,9.9716a8.5172,8.5172,0,0,0,10.6138,7.4322l9.6967-2.5127a29.5411,29.5411,0,0,1,37.2764,27.4487v0a65.3668,65.3668,0,0,1-17.1665,47.0771l-1.957,2.2a4.5,4.5,0,0,1-6.59.1441,114.8239,114.8239,0,0,0-24.7334-18.9693,1.6738,1.6738,0,0,0-2.2881.357,1.7539,1.7539,0,0,0-.0805,2.394,132.5408,132.5408,0,0,1,17.6059,30.4077,4.5,4.5,0,0,1-.8154,4.6636l-1.4858,1.67a4.4153,4.4153,0,0,1-.3135.3194,108.353,108.353,0,0,1-29.8018,19.5253,4.5,4.5,0,0,1-6.0556-2.6191,100.8226,100.8226,0,0,0-10.4932-20.9932.8222.8222,0,0,0-1.1318-.373.8782.8782,0,0,0-.6045,1.105,119.6156,119.6156,0,0,1,1.9814,25.11,4.5,4.5,0,0,1-3.5376,4.2432c-3.4345.75-6.8061,1.3193-10.02,1.6924L121.42,292.8034A13.0341,13.0341,0,0,1,119.929,292.89Zm-13.252-52.7661c.33,1.9345.71,3.8086,1.1368,5.6015l8.3725,35.1992a3.855,3.855,0,0,0,4.1963,2.9385l35.94-4.1714c1.8306-.2124,3.7217-.4961,5.6529-.8471a114.4617,114.4617,0,0,0-1.8955-19.6651,9.9573,9.9573,0,0,1,18.1513-7.2124A113.3471,113.3471,0,0,1,187.88,270.22a99.4082,99.4082,0,0,0,22.3037-15.2217,126.5288,126.5288,0,0,0-15.3262-25.6861,10.7865,10.7865,0,0,1,.5186-13.7934,10.5956,10.5956,0,0,1,13.55-2.17,127.3615,127.3615,0,0,1,23.2173,17.09A56.289,56.289,0,0,0,245.8606,191.13a20.5446,20.5446,0,0,0-26.03-19.19l-9.6968,2.5127a17.5165,17.5165,0,0,1-21.8306-15.2857l-.9556-9.9716a20.544,20.544,0,0,0-26.936-17.897,56.2619,56.2619,0,0,0-32.2476,26.3335,127.4172,127.4172,0,0,1,24.001,15.9722A10.596,10.596,0,0,1,154.76,187.08a10.7841,10.7841,0,0,1-12.7842,5.2036,126.5454,126.5454,0,0,0-29.3784-5.6167,99.396,99.396,0,0,0-6.6753,26.1651,113.3314,113.3314,0,0,1,20.4521,2.8237,9.9577,9.9577,0,0,1-.57,19.5239A114.3828,114.3828,0,0,0,106.677,240.1237Z"/><path d="M143.138,251.3947a4.5008,4.5008,0,0,1-3.6822-7.0816l52.0269-74.3017a4.5,4.5,0,0,1,7.3721,5.1621l-52.0269,74.3017A4.4949,4.4949,0,0,1,143.138,251.3947Z"/><path d="M294.9827,458.2343h-62a21.5667,21.5667,0,0,1-21.0372-16.8171L186.0894,326.8933H341.8762L316.02,441.4172A21.5667,21.5667,0,0,1,294.9827,458.2343Z" style="fill:#f7e8da"/><polygon points="328.371 367.629 190.879 367.629 186.089 330.106 337.586 330.106 328.371 367.629" style="fill:#fff"/><path d="M294.9827,462.7345h-62a25.9272,25.9272,0,0,1-25.4268-20.3262L180.5254,322.6817a.2364.2364,0,0,1,.2306-.2885H347.21a.2364.2364,0,0,1,.2306.2885L320.41,442.4083A25.9272,25.9272,0,0,1,294.9827,462.7345ZM191.719,331.3932l24.6162,109.0327a16.9751,16.9751,0,0,0,16.6475,13.3086h62A16.9751,16.9751,0,0,0,311.63,440.4259l24.6167-109.0327Z"/></g></svg>